mtllib circle_dash2.mtl
o circle_dash2.obj
v 0.497261 0.052264 0.000000
v 0.489074 0.103956 0.000000
v 0.475528 0.154509 0.000000
v 0.456773 0.203368 0.000000
v 0.433013 0.250000 0.000000
v 0.404509 0.293893 0.000000
v 0.371572 0.334565 0.000000
v 0.334565 0.371573 0.000000
v 0.293893 0.404509 0.000000
v 0.203368 0.456773 0.000000
v 0.154509 0.475529 0.000000
v 0.103956 0.489074 0.000000
v 0.052264 0.497261 0.000000
v 0.000000 0.500000 0.000000
v -0.052264 0.497261 0.000000
v -0.103956 0.489074 0.000000
v -0.154509 0.475529 0.000000
v -0.203368 0.456773 0.000000
v -0.293893 0.404509 0.000000
v -0.334565 0.371573 0.000000
v -0.371573 0.334566 0.000000
v -0.404509 0.293893 0.000000
v -0.433013 0.250000 0.000000
v -0.456773 0.203369 0.000000
v -0.475529 0.154509 0.000000
v -0.489074 0.103956 0.000000
v -0.497261 0.052264 0.000000
v -0.497261 -0.052264 0.000000
v -0.489074 -0.103956 0.000000
v -0.475529 -0.154508 0.000000
v -0.456773 -0.203368 0.000000
v -0.433013 -0.250000 0.000000
v -0.404509 -0.293893 0.000000
v -0.371573 -0.334565 0.000000
v -0.334566 -0.371573 0.000000
v -0.293893 -0.404509 0.000000
v -0.203369 -0.456773 0.000000
v -0.154509 -0.475529 0.000000
v -0.103956 -0.489074 0.000000
v -0.052264 -0.497261 0.000000
v -0.000000 -0.500000 0.000000
v 0.052264 -0.497261 0.000000
v 0.103956 -0.489074 0.000000
v 0.154509 -0.475529 0.000000
v 0.203369 -0.456773 0.000000
v 0.293893 -0.404509 0.000000
v 0.334566 -0.371573 0.000000
v 0.371573 -0.334566 0.000000
v 0.404509 -0.293893 0.000000
v 0.433013 -0.250000 0.000000
v 0.456773 -0.203368 0.000000
v 0.475529 -0.154509 0.000000
v 0.489074 -0.103956 0.000000
v 0.497262 -0.052264 0.000000
v 0.000000 0.000000 0.000000
vn 0.000000 0.000000 1.000000
vn 0.000000 0.000000 1.000000
vn 0.000000 0.000000 1.000000
vn 0.000000 0.000000 1.000000
vn 0.000000 0.000000 1.000000
vn 0.000000 0.000000 1.000000
vn 0.000000 0.000000 1.000000
vn 0.000000 0.000000 1.000000
vn 0.000000 0.000000 1.000000
vn 0.000000 0.000000 1.000000
vn 0.000000 0.000000 1.000000
vn 0.000000 0.000000 1.000000
vn 0.000000 0.000000 1.000000
vn 0.000000 0.000000 1.000000
vn 0.000000 0.000000 1.000000
vn 0.000000 0.000000 1.000000
vn 0.000000 0.000000 1.000000
vn 0.000000 0.000000 1.000000
vn 0.000000 0.000000 1.000000
vn 0.000000 0.000000 1.000000
vn 0.000000 0.000000 1.000000
vn 0.000000 0.000000 1.000000
vn 0.000000 0.000000 1.000000
vn 0.000000 0.000000 1.000000
vn 0.000000 0.000000 1.000000
vn 0.000000 0.000000 1.000000
vn 0.000000 0.000000 1.000000
vn 0.000000 0.000000 1.000000
vn 0.000000 0.000000 1.000000
vn 0.000000 0.000000 1.000000
vn 0.000000 0.000000 1.000000
vn 0.000000 0.000000 1.000000
vn 0.000000 0.000000 1.000000
vn 0.000000 0.000000 1.000000
vn 0.000000 0.000000 1.000000
vn 0.000000 0.000000 1.000000
vn 0.000000 0.000000 1.000000
vn 0.000000 0.000000 1.000000
vn 0.000000 0.000000 1.000000
vn 0.000000 0.000000 1.000000
vn 0.000000 0.000000 1.000000
vn 0.000000 0.000000 1.000000
vn 0.000000 0.000000 1.000000
vn 0.000000 0.000000 1.000000
vn 0.000000 0.000000 1.000000
vn 0.000000 0.000000 1.000000
vn 0.000000 0.000000 1.000000
vn 0.000000 0.000000 1.000000
vn 0.000000 0.000000 1.000000
vn 0.000000 0.000000 1.000000
vn 0.000000 0.000000 1.000000
vn 0.000000 0.000000 1.000000
vn 0.000000 0.000000 1.000000
vn 0.000000 0.000000 1.000000
vn 0.000000 0.000000 1.000000
vt 0.500000 0.500000
vt 0.992337 0.551747
vt 0.984231 0.602927
vt 0.970820 0.652979
vt 0.952250 0.701355
vt 0.928725 0.747525
vt 0.900503 0.790983
vt 0.867893 0.831253
vt 0.831253 0.867893
vt 0.790983 0.900503
vt 0.500000 0.500000
vt 0.701355 0.952250
vt 0.652979 0.970820
vt 0.602927 0.984231
vt 0.551747 0.992338
vt 0.500000 0.995049
vt 0.448253 0.992338
vt 0.397074 0.984231
vt 0.347021 0.970820
vt 0.298645 0.952250
vt 0.500000 0.500000
vt 0.209017 0.900504
vt 0.168747 0.867894
vt 0.132107 0.831253
vt 0.099497 0.790983
vt 0.071275 0.747525
vt 0.047750 0.701355
vt 0.029180 0.652979
vt 0.015769 0.602927
vt 0.007663 0.551747
vt 0.500000 0.500000
vt 0.007663 0.448253
vt 0.015769 0.397074
vt 0.029180 0.347021
vt 0.047750 0.298645
vt 0.071275 0.252475
vt 0.099497 0.209017
vt 0.132107 0.168747
vt 0.168747 0.132107
vt 0.209017 0.099497
vt 0.500000 0.500000
vt 0.298645 0.047750
vt 0.347021 0.029180
vt 0.397074 0.015769
vt 0.448253 0.007662
vt 0.500000 0.004950
vt 0.551747 0.007662
vt 0.602927 0.015769
vt 0.652979 0.029180
vt 0.701355 0.047750
vt 0.500000 0.500000
vt 0.790983 0.099497
vt 0.831253 0.132107
vt 0.867894 0.168747
vt 0.900504 0.209017
vt 0.928726 0.252475
vt 0.952251 0.298645
vt 0.970820 0.347021
vt 0.984232 0.397073
vt 0.992338 0.448253
g Polygon
usemtl Default
f 55/1/55 1/2/1 2/3/2 
f 55/1/55 2/3/2 3/4/3 
f 55/1/55 3/4/3 4/5/4 
f 55/1/55 4/5/4 5/6/5 
f 55/1/55 5/6/5 6/7/6 
f 55/1/55 6/7/6 7/8/7 
f 55/1/55 7/8/7 8/9/8 
f 55/1/55 8/9/8 9/10/9 
f 55/11/55 10/12/10 11/13/11 
f 55/11/55 11/13/11 12/14/12 
f 55/11/55 12/14/12 13/15/13 
f 55/11/55 13/15/13 14/16/14 
f 55/11/55 14/16/14 15/17/15 
f 55/11/55 15/17/15 16/18/16 
f 55/11/55 16/18/16 17/19/17 
f 55/11/55 17/19/17 18/20/18 
f 55/21/55 19/22/19 20/23/20 
f 55/21/55 20/23/20 21/24/21 
f 55/21/55 21/24/21 22/25/22 
f 55/21/55 22/25/22 23/26/23 
f 55/21/55 23/26/23 24/27/24 
f 55/21/55 24/27/24 25/28/25 
f 55/21/55 25/28/25 26/29/26 
f 55/21/55 26/29/26 27/30/27 
f 55/31/55 28/32/28 29/33/29 
f 55/31/55 29/33/29 30/34/30 
f 55/31/55 30/34/30 31/35/31 
f 55/31/55 31/35/31 32/36/32 
f 55/31/55 32/36/32 33/37/33 
f 55/31/55 33/37/33 34/38/34 
f 55/31/55 34/38/34 35/39/35 
f 55/31/55 35/39/35 36/40/36 
f 55/41/55 37/42/37 38/43/38 
f 55/41/55 38/43/38 39/44/39 
f 55/41/55 39/44/39 40/45/40 
f 55/41/55 40/45/40 41/46/41 
f 55/41/55 41/46/41 42/47/42 
f 55/41/55 42/47/42 43/48/43 
f 55/41/55 43/48/43 44/49/44 
f 55/41/55 44/49/44 45/50/45 
f 55/51/55 46/52/46 47/53/47 
f 55/51/55 47/53/47 48/54/48 
f 55/51/55 48/54/48 49/55/49 
f 55/51/55 49/55/49 50/56/50 
f 55/51/55 50/56/50 51/57/51 
f 55/51/55 51/57/51 52/58/52 
f 55/51/55 52/58/52 53/59/53 
f 55/51/55 53/59/53 54/60/54 
