mtllib ring_point.mtl
o ring_point.obj
v 0.500000 -0.000000 -0.000001
v 0.498458 0.039229 -0.000001
v 0.493844 0.078217 -0.000001
v 0.486185 0.116722 -0.000001
v 0.475528 0.154508 -0.000001
v 0.461939 0.191341 -0.000001
v 0.445503 0.226995 -0.000001
v 0.426320 0.261249 -0.000001
v 0.404508 0.293892 -0.000001
v 0.380203 0.324724 -0.000001
v 0.353553 0.353553 -0.000001
v 0.324724 0.380203 -0.000001
v 0.293892 0.404508 -0.000001
v 0.261249 0.426320 -0.000001
v 0.226995 0.445503 -0.000001
v 0.191341 0.461939 -0.000001
v 0.154508 0.475528 -0.000001
v 0.116722 0.486184 -0.000001
v 0.078217 0.493844 -0.000001
v 0.039229 0.498458 -0.000001
v -0.000000 0.611317 -0.000001
v -0.039230 0.498458 -0.000001
v -0.078218 0.493844 -0.000001
v -0.116723 0.486184 -0.000001
v -0.154509 0.475528 -0.000001
v -0.191342 0.461939 -0.000001
v -0.226995 0.445503 -0.000001
v -0.261249 0.426319 -0.000001
v -0.293893 0.404508 -0.000001
v -0.324724 0.380202 -0.000001
v -0.353553 0.353553 -0.000001
v -0.380203 0.324723 -0.000001
v -0.404508 0.293892 -0.000001
v -0.426320 0.261249 -0.000001
v -0.445503 0.226995 -0.000001
v -0.461940 0.191341 -0.000001
v -0.475528 0.154508 -0.000001
v -0.486185 0.116722 -0.000001
v -0.493844 0.078217 -0.000001
v -0.498458 0.039229 -0.000001
v -0.500000 -0.000000 -0.000001
v -0.498458 -0.039230 -0.000001
v -0.493844 -0.078218 -0.000001
v -0.486185 -0.116723 -0.000001
v -0.475528 -0.154509 -0.000001
v -0.461939 -0.191342 -0.000001
v -0.445503 -0.226995 -0.000001
v -0.426320 -0.261249 -0.000001
v -0.404508 -0.293893 -0.000001
v -0.380203 -0.324724 -0.000001
v -0.353553 -0.353553 -0.000001
v -0.324724 -0.380203 -0.000001
v -0.293892 -0.404508 -0.000001
v -0.261249 -0.426320 -0.000001
v -0.226995 -0.445503 -0.000001
v -0.191342 -0.461939 -0.000001
v -0.154508 -0.475528 -0.000001
v -0.116723 -0.486184 -0.000001
v -0.078217 -0.493844 -0.000001
v -0.039230 -0.498458 -0.000001
v -0.000000 -0.499999 -0.000001
v 0.039229 -0.498458 -0.000001
v 0.078217 -0.493844 -0.000001
v 0.116722 -0.486184 -0.000001
v 0.154508 -0.475528 -0.000001
v 0.191341 -0.461939 -0.000001
v 0.226995 -0.445503 -0.000001
v 0.261249 -0.426320 -0.000001
v 0.293892 -0.404508 -0.000001
v 0.324723 -0.380202 -0.000001
v 0.353553 -0.353553 -0.000001
v 0.380202 -0.324724 -0.000001
v 0.404508 -0.293892 -0.000001
v 0.426319 -0.261249 -0.000001
v 0.445502 -0.226995 -0.000001
v 0.461939 -0.191341 -0.000001
v 0.475527 -0.154508 -0.000001
v 0.486184 -0.116723 -0.000001
v 0.493843 -0.078217 -0.000001
v 0.498457 -0.039230 -0.000001
v 0.472500 -0.000000 -0.000001
v 0.471043 0.037072 -0.000001
v 0.466682 0.073915 -0.000001
v 0.459444 0.110303 -0.000001
v 0.449374 0.146010 -0.000001
v 0.436533 0.180818 -0.000001
v 0.421000 0.214510 -0.000001
v 0.402872 0.246880 -0.000001
v 0.382260 0.277728 -0.000001
v 0.359291 0.306864 -0.000001
v 0.334107 0.334107 -0.000001
v 0.306864 0.359291 -0.000001
v 0.277728 0.382260 -0.000001
v 0.246880 0.402872 -0.000001
v 0.214510 0.421000 -0.000001
v 0.180817 0.436532 -0.000001
v 0.146010 0.449374 -0.000001
v 0.110302 0.459444 -0.000001
v 0.073915 0.466682 -0.000001
v 0.037071 0.471043 -0.000001
v -0.000000 0.472499 -0.000001
v -0.037072 0.471043 -0.000001
v -0.073916 0.466682 -0.000001
v -0.110303 0.459444 -0.000001
v -0.146011 0.449373 -0.000001
v -0.180818 0.436532 -0.000001
v -0.214511 0.421000 -0.000001
v -0.246881 0.402872 -0.000001
v -0.277729 0.382260 -0.000001
v -0.306864 0.359291 -0.000001
v -0.334108 0.334107 -0.000001
v -0.359292 0.306863 -0.000001
v -0.382261 0.277728 -0.000001
v -0.402873 0.246880 -0.000001
v -0.421001 0.214510 -0.000001
v -0.436533 0.180817 -0.000001
v -0.449374 0.146010 -0.000001
v -0.459445 0.110302 -0.000001
v -0.466683 0.073915 -0.000001
v -0.471043 0.037071 -0.000001
v -0.472500 -0.000000 -0.000001
v -0.471043 -0.037072 -0.000001
v -0.466683 -0.073916 -0.000001
v -0.459445 -0.110303 -0.000001
v -0.449374 -0.146011 -0.000001
v -0.436533 -0.180818 -0.000001
v -0.421000 -0.214511 -0.000001
v -0.402872 -0.246881 -0.000001
v -0.382260 -0.277729 -0.000001
v -0.359292 -0.306864 -0.000001
v -0.334108 -0.334108 -0.000001
v -0.306864 -0.359292 -0.000001
v -0.277728 -0.382260 -0.000001
v -0.246881 -0.402872 -0.000001
v -0.214510 -0.421000 -0.000001
v -0.180818 -0.436533 -0.000001
v -0.146011 -0.449374 -0.000001
v -0.110303 -0.459444 -0.000001
v -0.073915 -0.466682 -0.000001
v -0.037072 -0.471043 -0.000001
v -0.000000 -0.472500 -0.000001
v 0.037072 -0.471043 -0.000001
v 0.073915 -0.466682 -0.000001
v 0.110302 -0.459444 -0.000001
v 0.146010 -0.449374 -0.000001
v 0.180817 -0.436533 -0.000001
v 0.214510 -0.421000 -0.000001
v 0.246880 -0.402872 -0.000001
v 0.277728 -0.382260 -0.000001
v 0.306863 -0.359291 -0.000001
v 0.334107 -0.334108 -0.000001
v 0.359291 -0.306864 -0.000001
v 0.382259 -0.277728 -0.000001
v 0.402871 -0.246880 -0.000001
v 0.420999 -0.214510 -0.000001
v 0.436532 -0.180818 -0.000001
v 0.449373 -0.146010 -0.000001
v 0.459444 -0.110303 -0.000001
v 0.466681 -0.073915 -0.000001
v 0.471042 -0.037072 -0.000001
vn 0.000000 0.000000 1.000000
vn 0.000000 0.000000 1.000000
vn 0.000000 0.000000 1.000000
vn 0.000000 0.000000 1.000000
vn 0.000000 0.000000 1.000000
vn 0.000000 0.000000 1.000000
vn 0.000000 0.000000 1.000000
vn 0.000000 0.000000 1.000000
vn 0.000000 0.000000 1.000000
vn 0.000000 0.000000 1.000000
vn 0.000000 0.000000 1.000000
vn 0.000000 0.000000 1.000000
vn 0.000000 0.000000 1.000000
vn 0.000000 0.000000 1.000000
vn 0.000000 0.000000 1.000000
vn 0.000000 0.000000 1.000000
vn 0.000000 0.000000 1.000000
vn 0.000000 0.000000 1.000000
vn 0.000000 0.000000 1.000000
vn 0.000000 0.000000 1.000000
vn 0.000000 0.000000 1.000000
vn 0.000000 0.000000 1.000000
vn 0.000000 0.000000 1.000000
vn 0.000000 0.000000 1.000000
vn 0.000000 0.000000 1.000000
vn 0.000000 0.000000 1.000000
vn 0.000000 0.000000 1.000000
vn 0.000000 0.000000 1.000000
vn 0.000000 0.000000 1.000000
vn 0.000000 0.000000 1.000000
vn 0.000000 0.000000 1.000000
vn 0.000000 0.000000 1.000000
vn 0.000000 0.000000 1.000000
vn 0.000000 0.000000 1.000000
vn 0.000000 0.000000 1.000000
vn 0.000000 0.000000 1.000000
vn 0.000000 0.000000 1.000000
vn 0.000000 0.000000 1.000000
vn 0.000000 0.000000 1.000000
vn 0.000000 0.000000 1.000000
vn 0.000000 0.000000 1.000000
vn 0.000000 0.000000 1.000000
vn 0.000000 0.000000 1.000000
vn 0.000000 0.000000 1.000000
vn 0.000000 0.000000 1.000000
vn 0.000000 0.000000 1.000000
vn 0.000000 0.000000 1.000000
vn 0.000000 0.000000 1.000000
vn 0.000000 0.000000 1.000000
vn 0.000000 0.000000 1.000000
vn 0.000000 0.000000 1.000000
vn 0.000000 0.000000 1.000000
vn 0.000000 0.000000 1.000000
vn 0.000000 0.000000 1.000000
vn 0.000000 0.000000 1.000000
vn 0.000000 0.000000 1.000000
vn 0.000000 0.000000 1.000000
vn 0.000000 0.000000 1.000000
vn 0.000000 0.000000 1.000000
vn 0.000000 0.000000 1.000000
vn 0.000000 0.000000 1.000000
vn 0.000000 0.000000 1.000000
vn 0.000000 0.000000 1.000000
vn 0.000000 0.000000 1.000000
vn 0.000000 0.000000 1.000000
vn 0.000000 0.000000 1.000000
vn 0.000000 0.000000 1.000000
vn 0.000000 0.000000 1.000000
vn 0.000000 0.000000 1.000000
vn 0.000000 0.000000 1.000000
vn 0.000000 0.000000 1.000000
vn 0.000000 0.000000 1.000000
vn 0.000000 0.000000 1.000000
vn 0.000000 0.000000 1.000000
vn 0.000000 0.000000 1.000000
vn 0.000000 0.000000 1.000000
vn 0.000000 0.000000 1.000000
vn 0.000000 0.000000 1.000000
vn 0.000000 0.000000 1.000000
vn 0.000000 0.000000 1.000000
vn 0.000000 0.000000 1.000000
vn 0.000000 0.000000 1.000000
vn 0.000000 0.000000 1.000000
vn 0.000000 0.000000 1.000000
vn 0.000000 0.000000 1.000000
vn 0.000000 0.000000 1.000000
vn 0.000000 0.000000 1.000000
vn 0.000000 0.000000 1.000000
vn 0.000000 0.000000 1.000000
vn 0.000000 0.000000 1.000000
vn 0.000000 0.000000 1.000000
vn 0.000000 0.000000 1.000000
vn 0.000000 0.000000 1.000000
vn 0.000000 0.000000 1.000000
vn 0.000000 0.000000 1.000000
vn 0.000000 0.000000 1.000000
vn 0.000000 0.000000 1.000000
vn 0.000000 0.000000 1.000000
vn 0.000000 0.000000 1.000000
vn 0.000000 0.000000 1.000000
vn 0.000000 0.000000 1.000000
vn 0.000000 0.000000 1.000000
vn 0.000000 0.000000 1.000000
vn 0.000000 0.000000 1.000000
vn 0.000000 0.000000 1.000000
vn 0.000000 0.000000 1.000000
vn 0.000000 0.000000 1.000000
vn 0.000000 0.000000 1.000000
vn 0.000000 0.000000 1.000000
vn 0.000000 0.000000 1.000000
vn 0.000000 0.000000 1.000000
vn 0.000000 0.000000 1.000000
vn 0.000000 0.000000 1.000000
vn 0.000000 0.000000 1.000000
vn 0.000000 0.000000 1.000000
vn 0.000000 0.000000 1.000000
vn 0.000000 0.000000 1.000000
vn 0.000000 0.000000 1.000000
vn 0.000000 0.000000 1.000000
vn 0.000000 0.000000 1.000000
vn 0.000000 0.000000 1.000000
vn 0.000000 0.000000 1.000000
vn 0.000000 0.000000 1.000000
vn 0.000000 0.000000 1.000000
vn 0.000000 0.000000 1.000000
vn 0.000000 0.000000 1.000000
vn 0.000000 0.000000 1.000000
vn 0.000000 0.000000 1.000000
vn 0.000000 0.000000 1.000000
vn 0.000000 0.000000 1.000000
vn 0.000000 0.000000 1.000000
vn 0.000000 0.000000 1.000000
vn 0.000000 0.000000 1.000000
vn 0.000000 0.000000 1.000000
vn 0.000000 0.000000 1.000000
vn 0.000000 0.000000 1.000000
vn 0.000000 0.000000 1.000000
vn 0.000000 0.000000 1.000000
vn 0.000000 0.000000 1.000000
vn 0.000000 0.000000 1.000000
vn 0.000000 0.000000 1.000000
vn 0.000000 0.000000 1.000000
vn 0.000000 0.000000 1.000000
vn 0.000000 0.000000 1.000000
vn 0.000000 0.000000 1.000000
vn 0.000000 0.000000 1.000000
vn 0.000000 0.000000 1.000000
vn 0.000000 0.000000 1.000000
vn 0.000000 0.000000 1.000000
vn 0.000000 0.000000 1.000000
vn 0.000000 0.000000 1.000000
vn 0.000000 0.000000 1.000000
vn 0.000000 0.000000 1.000000
vn 0.000000 0.000000 1.000000
vn 0.000000 0.000000 1.000000
vn 0.000000 0.000000 1.000000
vn 0.000000 0.000000 1.000000
vn 0.000000 0.000000 1.000000
vn 0.000000 0.000000 1.000000
vn 0.000000 0.000000 1.000000
g Polygon
usemtl Default
f 81//81 1//1 2//2 82//82 
f 82//82 2//2 3//3 83//83 
f 83//83 3//3 4//4 84//84 
f 84//84 4//4 5//5 85//85 
f 85//85 5//5 6//6 86//86 
f 86//86 6//6 7//7 87//87 
f 87//87 7//7 8//8 88//88 
f 88//88 8//8 9//9 89//89 
f 89//89 9//9 10//10 90//90 
f 90//90 10//10 11//11 91//91 
f 91//91 11//11 12//12 92//92 
f 92//92 12//12 13//13 93//93 
f 93//93 13//13 14//14 94//94 
f 94//94 14//14 15//15 95//95 
f 95//95 15//15 16//16 96//96 
f 96//96 16//16 17//17 97//97 
f 97//97 17//17 18//18 98//98 
f 98//98 18//18 19//19 99//99 
f 99//99 19//19 20//20 100//100 
f 100//100 20//20 21//21 101//101 
f 101//101 21//21 22//22 102//102 
f 102//102 22//22 23//23 103//103 
f 103//103 23//23 24//24 104//104 
f 104//104 24//24 25//25 105//105 
f 105//105 25//25 26//26 106//106 
f 106//106 26//26 27//27 107//107 
f 107//107 27//27 28//28 108//108 
f 108//108 28//28 29//29 109//109 
f 109//109 29//29 30//30 110//110 
f 110//110 30//30 31//31 111//111 
f 111//111 31//31 32//32 112//112 
f 112//112 32//32 33//33 113//113 
f 113//113 33//33 34//34 114//114 
f 114//114 34//34 35//35 115//115 
f 115//115 35//35 36//36 116//116 
f 116//116 36//36 37//37 117//117 
f 117//117 37//37 38//38 118//118 
f 118//118 38//38 39//39 119//119 
f 119//119 39//39 40//40 120//120 
f 120//120 40//40 41//41 121//121 
f 121//121 41//41 42//42 122//122 
f 122//122 42//42 43//43 123//123 
f 123//123 43//43 44//44 124//124 
f 124//124 44//44 45//45 125//125 
f 125//125 45//45 46//46 126//126 
f 126//126 46//46 47//47 127//127 
f 127//127 47//47 48//48 128//128 
f 128//128 48//48 49//49 129//129 
f 129//129 49//49 50//50 130//130 
f 130//130 50//50 51//51 131//131 
f 131//131 51//51 52//52 132//132 
f 132//132 52//52 53//53 133//133 
f 133//133 53//53 54//54 134//134 
f 134//134 54//54 55//55 135//135 
f 135//135 55//55 56//56 136//136 
f 136//136 56//56 57//57 137//137 
f 137//137 57//57 58//58 138//138 
f 138//138 58//58 59//59 139//139 
f 139//139 59//59 60//60 140//140 
f 140//140 60//60 61//61 141//141 
f 141//141 61//61 62//62 142//142 
f 142//142 62//62 63//63 143//143 
f 143//143 63//63 64//64 144//144 
f 144//144 64//64 65//65 145//145 
f 145//145 65//65 66//66 146//146 
f 146//146 66//66 67//67 147//147 
f 147//147 67//67 68//68 148//148 
f 148//148 68//68 69//69 149//149 
f 149//149 69//69 70//70 150//150 
f 150//150 70//70 71//71 151//151 
f 151//151 71//71 72//72 152//152 
f 152//152 72//72 73//73 153//153 
f 153//153 73//73 74//74 154//154 
f 154//154 74//74 75//75 155//155 
f 155//155 75//75 76//76 156//156 
f 156//156 76//76 77//77 157//157 
f 157//157 77//77 78//78 158//158 
f 158//158 78//78 79//79 159//159 
f 159//159 79//79 80//80 160//160 
f 160//160 80//80 1//1 81//81 
