mtllib ring_dash.mtl
o ring_dash.obj
v 0.500000 -0.000000 -0.000001
v 0.498458 0.039229 -0.000001
v 0.486185 0.116722 -0.000001
v 0.475528 0.154508 -0.000001
v 0.461939 0.191341 -0.000001
v 0.426320 0.261249 -0.000001
v 0.404508 0.293892 -0.000001
v 0.380203 0.324724 -0.000001
v 0.324724 0.380203 -0.000001
v 0.293892 0.404508 -0.000001
v 0.261249 0.426320 -0.000001
v 0.191341 0.461939 -0.000001
v 0.154508 0.475528 -0.000001
v 0.116722 0.486184 -0.000001
v 0.039229 0.498458 -0.000001
v -0.000000 0.499999 -0.000001
v -0.039230 0.498458 -0.000001
v -0.116723 0.486184 -0.000001
v -0.154509 0.475528 -0.000001
v -0.191342 0.461939 -0.000001
v -0.261249 0.426319 -0.000001
v -0.293893 0.404508 -0.000001
v -0.324724 0.380202 -0.000001
v -0.380203 0.324723 -0.000001
v -0.404508 0.293892 -0.000001
v -0.426320 0.261249 -0.000001
v -0.461940 0.191341 -0.000001
v -0.475528 0.154508 -0.000001
v -0.486185 0.116722 -0.000001
v -0.498458 0.039229 -0.000001
v -0.500000 -0.000000 -0.000001
v -0.498458 -0.039230 -0.000001
v -0.486185 -0.116723 -0.000001
v -0.475528 -0.154509 -0.000001
v -0.461939 -0.191342 -0.000001
v -0.426320 -0.261249 -0.000001
v -0.404508 -0.293893 -0.000001
v -0.380203 -0.324724 -0.000001
v -0.324724 -0.380203 -0.000001
v -0.293892 -0.404508 -0.000001
v -0.261249 -0.426320 -0.000001
v -0.191342 -0.461939 -0.000001
v -0.154508 -0.475528 -0.000001
v -0.116723 -0.486184 -0.000001
v -0.039230 -0.498458 -0.000001
v -0.000000 -0.499999 -0.000001
v 0.039229 -0.498458 -0.000001
v 0.116722 -0.486184 -0.000001
v 0.154508 -0.475528 -0.000001
v 0.191341 -0.461939 -0.000001
v 0.261249 -0.426320 -0.000001
v 0.293892 -0.404508 -0.000001
v 0.324723 -0.380202 -0.000001
v 0.380202 -0.324724 -0.000001
v 0.404508 -0.293892 -0.000001
v 0.426319 -0.261249 -0.000001
v 0.461939 -0.191341 -0.000001
v 0.475527 -0.154508 -0.000001
v 0.486184 -0.116723 -0.000001
v 0.498457 -0.039230 -0.000001
v 0.472500 -0.000000 -0.000001
v 0.471043 0.037072 -0.000001
v 0.459444 0.110303 -0.000001
v 0.449374 0.146010 -0.000001
v 0.436533 0.180818 -0.000001
v 0.402872 0.246880 -0.000001
v 0.382260 0.277728 -0.000001
v 0.359291 0.306864 -0.000001
v 0.306864 0.359291 -0.000001
v 0.277728 0.382260 -0.000001
v 0.246880 0.402872 -0.000001
v 0.180817 0.436532 -0.000001
v 0.146010 0.449374 -0.000001
v 0.110302 0.459444 -0.000001
v 0.037071 0.471043 -0.000001
v -0.000000 0.472499 -0.000001
v -0.037072 0.471043 -0.000001
v -0.110303 0.459444 -0.000001
v -0.146011 0.449373 -0.000001
v -0.180818 0.436532 -0.000001
v -0.246881 0.402872 -0.000001
v -0.277729 0.382260 -0.000001
v -0.306864 0.359291 -0.000001
v -0.359292 0.306863 -0.000001
v -0.382261 0.277728 -0.000001
v -0.402873 0.246880 -0.000001
v -0.436533 0.180817 -0.000001
v -0.449374 0.146010 -0.000001
v -0.459445 0.110302 -0.000001
v -0.471043 0.037071 -0.000001
v -0.472500 -0.000000 -0.000001
v -0.471043 -0.037072 -0.000001
v -0.459445 -0.110303 -0.000001
v -0.449374 -0.146011 -0.000001
v -0.436533 -0.180818 -0.000001
v -0.402872 -0.246881 -0.000001
v -0.382260 -0.277729 -0.000001
v -0.359292 -0.306864 -0.000001
v -0.306864 -0.359292 -0.000001
v -0.277728 -0.382260 -0.000001
v -0.246881 -0.402872 -0.000001
v -0.180818 -0.436533 -0.000001
v -0.146011 -0.449374 -0.000001
v -0.110303 -0.459444 -0.000001
v -0.037072 -0.471043 -0.000001
v -0.000000 -0.472500 -0.000001
v 0.037072 -0.471043 -0.000001
v 0.110302 -0.459444 -0.000001
v 0.146010 -0.449374 -0.000001
v 0.180817 -0.436533 -0.000001
v 0.246880 -0.402872 -0.000001
v 0.277728 -0.382260 -0.000001
v 0.306863 -0.359291 -0.000001
v 0.359291 -0.306864 -0.000001
v 0.382259 -0.277728 -0.000001
v 0.402871 -0.246880 -0.000001
v 0.436532 -0.180818 -0.000001
v 0.449373 -0.146010 -0.000001
v 0.459444 -0.110303 -0.000001
v 0.471042 -0.037072 -0.000001
vn 0.000000 0.000000 1.000000
vn 0.000000 0.000000 1.000000
vn 0.000000 0.000000 1.000000
vn 0.000000 0.000000 1.000000
vn 0.000000 0.000000 1.000000
vn 0.000000 0.000000 1.000000
vn 0.000000 0.000000 1.000000
vn 0.000000 0.000000 1.000000
vn 0.000000 0.000000 1.000000
vn 0.000000 0.000000 1.000000
vn 0.000000 0.000000 1.000000
vn 0.000000 0.000000 1.000000
vn 0.000000 0.000000 1.000000
vn 0.000000 0.000000 1.000000
vn 0.000000 0.000000 1.000000
vn 0.000000 0.000000 1.000000
vn 0.000000 0.000000 1.000000
vn 0.000000 0.000000 1.000000
vn 0.000000 0.000000 1.000000
vn 0.000000 0.000000 1.000000
vn 0.000000 0.000000 1.000000
vn 0.000000 0.000000 1.000000
vn 0.000000 0.000000 1.000000
vn 0.000000 0.000000 1.000000
vn 0.000000 0.000000 1.000000
vn 0.000000 0.000000 1.000000
vn 0.000000 0.000000 1.000000
vn 0.000000 0.000000 1.000000
vn 0.000000 0.000000 1.000000
vn 0.000000 0.000000 1.000000
vn 0.000000 0.000000 1.000000
vn 0.000000 0.000000 1.000000
vn 0.000000 0.000000 1.000000
vn 0.000000 0.000000 1.000000
vn 0.000000 0.000000 1.000000
vn 0.000000 0.000000 1.000000
vn 0.000000 0.000000 1.000000
vn 0.000000 0.000000 1.000000
vn 0.000000 0.000000 1.000000
vn 0.000000 0.000000 1.000000
vn 0.000000 0.000000 1.000000
vn 0.000000 0.000000 1.000000
vn 0.000000 0.000000 1.000000
vn 0.000000 0.000000 1.000000
vn 0.000000 0.000000 1.000000
vn 0.000000 0.000000 1.000000
vn 0.000000 0.000000 1.000000
vn 0.000000 0.000000 1.000000
vn 0.000000 0.000000 1.000000
vn 0.000000 0.000000 1.000000
vn 0.000000 0.000000 1.000000
vn 0.000000 0.000000 1.000000
vn 0.000000 0.000000 1.000000
vn 0.000000 0.000000 1.000000
vn 0.000000 0.000000 1.000000
vn 0.000000 0.000000 1.000000
vn 0.000000 0.000000 1.000000
vn 0.000000 0.000000 1.000000
vn 0.000000 0.000000 1.000000
vn 0.000000 0.000000 1.000000
vn 0.000000 0.000000 1.000000
vn 0.000000 0.000000 1.000000
vn 0.000000 0.000000 1.000000
vn 0.000000 0.000000 1.000000
vn 0.000000 0.000000 1.000000
vn 0.000000 0.000000 1.000000
vn 0.000000 0.000000 1.000000
vn 0.000000 0.000000 1.000000
vn 0.000000 0.000000 1.000000
vn 0.000000 0.000000 1.000000
vn 0.000000 0.000000 1.000000
vn 0.000000 0.000000 1.000000
vn 0.000000 0.000000 1.000000
vn 0.000000 0.000000 1.000000
vn 0.000000 0.000000 1.000000
vn 0.000000 0.000000 1.000000
vn 0.000000 0.000000 1.000000
vn 0.000000 0.000000 1.000000
vn 0.000000 0.000000 1.000000
vn 0.000000 0.000000 1.000000
vn 0.000000 0.000000 1.000000
vn 0.000000 0.000000 1.000000
vn 0.000000 0.000000 1.000000
vn 0.000000 0.000000 1.000000
vn 0.000000 0.000000 1.000000
vn 0.000000 0.000000 1.000000
vn 0.000000 0.000000 1.000000
vn 0.000000 0.000000 1.000000
vn 0.000000 0.000000 1.000000
vn 0.000000 0.000000 1.000000
vn 0.000000 0.000000 1.000000
vn 0.000000 0.000000 1.000000
vn 0.000000 0.000000 1.000000
vn 0.000000 0.000000 1.000000
vn 0.000000 0.000000 1.000000
vn 0.000000 0.000000 1.000000
vn 0.000000 0.000000 1.000000
vn 0.000000 0.000000 1.000000
vn 0.000000 0.000000 1.000000
vn 0.000000 0.000000 1.000000
vn 0.000000 0.000000 1.000000
vn 0.000000 0.000000 1.000000
vn 0.000000 0.000000 1.000000
vn 0.000000 0.000000 1.000000
vn 0.000000 0.000000 1.000000
vn 0.000000 0.000000 1.000000
vn 0.000000 0.000000 1.000000
vn 0.000000 0.000000 1.000000
vn 0.000000 0.000000 1.000000
vn 0.000000 0.000000 1.000000
vn 0.000000 0.000000 1.000000
vn 0.000000 0.000000 1.000000
vn 0.000000 0.000000 1.000000
vn 0.000000 0.000000 1.000000
vn 0.000000 0.000000 1.000000
vn 0.000000 0.000000 1.000000
vn 0.000000 0.000000 1.000000
vn 0.000000 0.000000 1.000000
vn 0.000000 0.000000 1.000000
vn 0.000000 0.000000 1.000000
g Polygon
usemtl Default
f 61//61 1//1 2//2 62//62 
f 63//63 3//3 4//4 64//64 
f 64//64 4//4 5//5 65//65 
f 66//66 6//6 7//7 67//67 
f 67//67 7//7 8//8 68//68 
f 69//69 9//9 10//10 70//70 
f 70//70 10//10 11//11 71//71 
f 72//72 12//12 13//13 73//73 
f 73//73 13//13 14//14 74//74 
f 75//75 15//15 16//16 76//76 
f 76//76 16//16 17//17 77//77 
f 78//78 18//18 19//19 79//79 
f 79//79 19//19 20//20 80//80 
f 81//81 21//21 22//22 82//82 
f 82//82 22//22 23//23 83//83 
f 84//84 24//24 25//25 85//85 
f 85//85 25//25 26//26 86//86 
f 87//87 27//27 28//28 88//88 
f 88//88 28//28 29//29 89//89 
f 90//90 30//30 31//31 91//91 
f 91//91 31//31 32//32 92//92 
f 93//93 33//33 34//34 94//94 
f 94//94 34//34 35//35 95//95 
f 96//96 36//36 37//37 97//97 
f 97//97 37//37 38//38 98//98 
f 99//99 39//39 40//40 100//100 
f 100//100 40//40 41//41 101//101 
f 102//102 42//42 43//43 103//103 
f 103//103 43//43 44//44 104//104 
f 105//105 45//45 46//46 106//106 
f 106//106 46//46 47//47 107//107 
f 108//108 48//48 49//49 109//109 
f 109//109 49//49 50//50 110//110 
f 111//111 51//51 52//52 112//112 
f 112//112 52//52 53//53 113//113 
f 114//114 54//54 55//55 115//115 
f 115//115 55//55 56//56 116//116 
f 117//117 57//57 58//58 118//118 
f 118//118 58//58 59//59 119//119 
f 120//120 60//60 1//1 61//61 
